<svg width="20" height="20" viewBox="0 0 20 20" fill="none" xmlns="http://www.w3.org/2000/svg">
<mask id="mask0_1395_677" style="mask-type:alpha" maskUnits="userSpaceOnUse" x="0" y="0" width="20" height="20">
<rect width="20" height="20" fill="#D9D9D9"/>
</mask>
<g mask="url(#mask0_1395_677)">
<path d="M11.4629 10L5.43561 3.97271C5.28395 3.82104 5.20679 3.63437 5.20415 3.41271C5.20151 3.19104 5.27603 3.00431 5.4277 2.8525C5.57936 2.70083 5.76603 2.625 5.9877 2.625C6.20936 2.625 6.3961 2.70083 6.5479 2.8525L12.761 9.05771C12.8977 9.19451 12.9954 9.3425 13.0542 9.50167C13.113 9.66083 13.1425 9.82694 13.1425 10C13.1425 10.1731 13.113 10.3392 13.0542 10.4983C12.9954 10.6575 12.8977 10.8055 12.761 10.9423L6.55582 17.1475C6.40415 17.2992 6.21617 17.3763 5.99186 17.379C5.76742 17.3816 5.57936 17.3071 5.4277 17.1554C5.27603 17.0038 5.2002 16.8171 5.2002 16.5954C5.2002 16.3738 5.27603 16.187 5.4277 16.0352L11.4629 10Z" fill="#1C1B1F"/>
</g>
</svg>
