<svg width="20" height="20" viewBox="0 0 20 20" fill="none" xmlns="http://www.w3.org/2000/svg">
<mask id="mask0_1395_671" style="mask-type:alpha" maskUnits="userSpaceOnUse" x="0" y="0" width="20" height="20">
<rect width="20" height="20" fill="#D9D9D9"/>
</mask>
<g mask="url(#mask0_1395_671)">
<path d="M7.52898 10.0001L13.5563 16.0274C13.7079 16.1791 13.7852 16.3671 13.7879 16.5914C13.7906 16.8158 13.7161 17.0039 13.5644 17.1555C13.4126 17.3072 13.2245 17.383 13.0002 17.383C12.7759 17.383 12.5879 17.3072 12.4361 17.1555L6.23107 10.9424C6.09426 10.8056 5.99648 10.6576 5.93773 10.4985C5.87898 10.3393 5.84961 10.1732 5.84961 10.0001C5.84961 9.82706 5.87898 9.66095 5.93773 9.50179C5.99648 9.34262 6.09426 9.19463 6.23107 9.05783L12.4361 2.85262C12.5879 2.70095 12.7746 2.6238 12.9963 2.62116C13.2179 2.61852 13.4046 2.69304 13.5563 2.8447C13.7079 2.99637 13.7838 3.18443 13.7838 3.40887C13.7838 3.63318 13.7079 3.82116 13.5563 3.97283L7.52898 10.0001Z" fill="#1C1B1F"/>
</g>
</svg>
