<svg width="20" height="20" viewBox="0 0 20 20" fill="none" xmlns="http://www.w3.org/2000/svg">
<mask id="mask0_1864_484" style="mask-type:alpha" maskUnits="userSpaceOnUse" x="0" y="0" width="20" height="20">
<rect width="20" height="20" fill="#D9D9D9"/>
</mask>
<g mask="url(#mask0_1864_484)">
<path d="M9.99993 10.7739L6.4391 14.3349C6.32368 14.4502 6.19945 14.5058 6.06639 14.5016C5.93347 14.4973 5.8066 14.4348 5.68576 14.3141C5.56507 14.1933 5.50472 14.0642 5.50472 13.927C5.50472 13.7898 5.56507 13.6608 5.68576 13.5399L9.22597 9.99993L5.66493 6.4391C5.54965 6.32368 5.4941 6.19597 5.49826 6.05597C5.50257 5.91611 5.56507 5.78576 5.68576 5.66493C5.8066 5.54423 5.93563 5.48389 6.07285 5.48389C6.21007 5.48389 6.3391 5.54423 6.45993 5.66493L9.99993 9.22597L13.5608 5.66493C13.6762 5.54965 13.8039 5.49062 13.9439 5.48785C14.0838 5.48521 14.2141 5.54423 14.3349 5.66493C14.4556 5.78576 14.516 5.91479 14.516 6.05201C14.516 6.18923 14.4556 6.31826 14.3349 6.4391L10.7739 9.99993L14.3349 13.5608C14.4502 13.6762 14.5092 13.8004 14.512 13.9335C14.5147 14.0664 14.4556 14.1933 14.3349 14.3141C14.2141 14.4348 14.0851 14.4951 13.9478 14.4951C13.8106 14.4951 13.6816 14.4348 13.5608 14.3141L9.99993 10.7739Z" fill="#666666"/>
</g>
</svg>
