<svg width="10" height="12" viewBox="0 0 10 12" fill="none" xmlns="http://www.w3.org/2000/svg">
<path d="M2.09534 12C1.76536 12 1.4829 11.8796 1.24795 11.6387C1.013 11.3978 0.895522 11.1082 0.895522 10.7699V1.82435H0.485075C0.347637 1.82435 0.232463 1.77704 0.139552 1.68243C0.0465173 1.58781 0 1.47062 0 1.33087C0 1.19099 0.0465173 1.07252 0.139552 0.975485C0.232463 0.878319 0.347637 0.829736 0.485075 0.829736H3.20896V0.60021C3.20896 0.434569 3.26617 0.293092 3.3806 0.175779C3.4949 0.0585929 3.63284 0 3.7944 0H6.2056C6.36716 0 6.5051 0.0585929 6.6194 0.175779C6.73383 0.293092 6.79104 0.434569 6.79104 0.60021V0.829736H9.51493C9.65236 0.829736 9.76754 0.877044 9.86045 0.97166C9.95348 1.06628 10 1.18346 10 1.32322C10 1.4631 9.95348 1.58156 9.86045 1.6786C9.76754 1.77577 9.65236 1.82435 9.51493 1.82435H9.10448V10.7617C9.10448 11.1093 8.987 11.4026 8.75205 11.6416C8.5171 11.8805 8.23464 12 7.90466 12H2.09534ZM8.13433 1.82435H1.86567V10.7699C1.86567 10.8387 1.88719 10.8951 1.93022 10.9392C1.97326 10.9833 2.0283 11.0054 2.09534 11.0054H7.90466C7.9717 11.0054 8.02674 10.9833 8.06978 10.9392C8.11281 10.8951 8.13433 10.8387 8.13433 10.7699V1.82435ZM3.99179 9.62823C4.12811 9.62823 4.24366 9.58061 4.33843 9.48535C4.43308 9.38997 4.48041 9.27183 4.48041 9.13093V3.69881C4.48041 3.55791 4.43433 3.43976 4.34216 3.34438C4.24988 3.24913 4.13551 3.2015 3.99907 3.2015C3.86275 3.2015 3.7472 3.24913 3.65243 3.34438C3.55777 3.43976 3.51045 3.55791 3.51045 3.69881V9.13093C3.51045 9.27183 3.55653 9.38997 3.64869 9.48535C3.74098 9.58061 3.85535 9.62823 3.99179 9.62823ZM6.00093 9.62823C6.13725 9.62823 6.2528 9.58061 6.34757 9.48535C6.44223 9.38997 6.48955 9.27183 6.48955 9.13093V3.69881C6.48955 3.55791 6.44347 3.43976 6.35131 3.34438C6.25902 3.24913 6.14465 3.2015 6.00821 3.2015C5.87189 3.2015 5.75634 3.24913 5.66157 3.34438C5.56692 3.43976 5.51959 3.55791 5.51959 3.69881V9.13093C5.51959 9.27183 5.56567 9.38997 5.65784 9.48535C5.75012 9.58061 5.86449 9.62823 6.00093 9.62823Z" fill="#F44336"/>
</svg>
