<svg width="14" height="14" viewBox="0 0 14 14" fill="none" xmlns="http://www.w3.org/2000/svg">
<path d="M1.29161 13.5082C1.04064 13.5531 0.833418 13.4903 0.669946 13.3199C0.506474 13.1494 0.447168 12.9388 0.492029 12.6878L1.12661 9.61237L4.36703 12.8736L1.29161 13.5082ZM4.36703 12.8736L1.12661 9.61237L9.89265 0.867158C10.1522 0.607575 10.4629 0.477783 10.8245 0.477783C11.1862 0.477783 11.4968 0.607575 11.7564 0.867158L13.1331 2.22299C13.3927 2.48258 13.5224 2.79667 13.5224 3.16528C13.5224 3.53389 13.3927 3.84799 13.1331 4.10757L4.36703 12.8736ZM10.6379 1.64132L2.61703 9.67487L4.32536 11.3832L12.3589 3.36237C12.407 3.31431 12.431 3.25424 12.431 3.18216C12.431 3.10994 12.407 3.0498 12.3589 3.00174L10.9985 1.64132C10.9504 1.59327 10.8903 1.56924 10.8181 1.56924C10.746 1.56924 10.6859 1.59327 10.6379 1.64132Z" fill="#666666"/>
</svg>
