<svg width="20" height="20" viewBox="0 0 20 20" fill="none" xmlns="http://www.w3.org/2000/svg">
<mask id="mask0_1940_587" style="mask-type:alpha" maskUnits="userSpaceOnUse" x="0" y="0" width="20" height="20">
<rect width="20" height="20" fill="#D9D9D9"/>
</mask>
<g mask="url(#mask0_1940_587)">
<path d="M9.99563 13.7755C10.1615 13.7755 10.3019 13.7194 10.4171 13.6071C10.5322 13.4949 10.5898 13.3559 10.5898 13.19C10.5898 13.0242 10.5337 12.8837 10.4215 12.7686C10.3092 12.6536 10.1702 12.5961 10.0044 12.5961C9.83855 12.5961 9.69806 12.6521 9.58292 12.7642C9.46778 12.8764 9.41021 13.0155 9.41021 13.1813C9.41021 13.3471 9.46632 13.4876 9.57855 13.6028C9.69077 13.7179 9.8298 13.7755 9.99563 13.7755ZM9.99584 11.064C10.1482 11.064 10.2772 11.0121 10.3829 10.9082C10.4888 10.8044 10.5417 10.6758 10.5417 10.5223V6.60567C10.5417 6.4522 10.4901 6.32352 10.3871 6.21963C10.284 6.11588 10.1564 6.064 10.0042 6.064C9.85181 6.064 9.72278 6.11588 9.61709 6.21963C9.51125 6.32352 9.45834 6.4522 9.45834 6.60567V10.5223C9.45834 10.6758 9.50987 10.8044 9.61292 10.9082C9.71598 11.0121 9.84362 11.064 9.99584 11.064ZM10.0071 17.5832C8.96389 17.5832 7.98139 17.3858 7.05959 16.9911C6.13778 16.5964 5.33098 16.0532 4.63917 15.3617C3.94737 14.6702 3.40396 13.864 3.00896 12.9432C2.6141 12.0225 2.41667 11.0387 2.41667 9.99171C2.41667 8.94477 2.61403 7.96386 3.00876 7.049C3.40348 6.13414 3.9466 5.33081 4.63813 4.639C5.32966 3.9472 6.13584 3.4038 7.05667 3.0088C7.97737 2.61393 8.96119 2.4165 10.0081 2.4165C11.0551 2.4165 12.036 2.61386 12.9508 3.00859C13.8657 3.40331 14.669 3.94643 15.3608 4.63796C16.0526 5.32949 16.596 6.134 16.991 7.0515C17.3859 7.96914 17.5833 8.94956 17.5833 9.99275C17.5833 11.0359 17.386 12.0184 16.9913 12.9403C16.5965 13.8621 16.0534 14.6689 15.3619 15.3607C14.6704 16.0525 13.8658 16.5959 12.9483 16.9909C12.0307 17.3857 11.0503 17.5832 10.0071 17.5832ZM10 16.4998C11.8056 16.4998 13.3403 15.8679 14.6042 14.604C15.8681 13.3401 16.5 11.8054 16.5 9.99984C16.5 8.19428 15.8681 6.65956 14.6042 5.39567C13.3403 4.13178 11.8056 3.49984 10 3.49984C8.19445 3.49984 6.65973 4.13178 5.39584 5.39567C4.13195 6.65956 3.50001 8.19428 3.50001 9.99984C3.50001 11.8054 4.13195 13.3401 5.39584 14.604C6.65973 15.8679 8.19445 16.4998 10 16.4998Z" fill="#F44336"/>
</g>
</svg>
