<svg width="21" height="20" viewBox="0 0 21 20" fill="none" xmlns="http://www.w3.org/2000/svg">
<mask id="mask0_1799_330" style="mask-type:alpha" maskUnits="userSpaceOnUse" x="0" y="0" width="21" height="20">
<rect x="0.5" width="20" height="20" fill="D9D9D9"/>
</mask>
<g mask="url(#mask0_1799_330)">
<path d="M5.25678 16.5834C4.88164 16.5834 4.56456 16.4539 4.30553 16.1949C4.04651 15.9358 3.91699 15.6188 3.91699 15.2436V4.75654C3.91699 4.3814 4.04651 4.06432 4.30553 3.80529C4.56456 3.54626 4.88164 3.41675 5.25678 3.41675H9.96678C10.1204 3.41675 10.2491 3.46821 10.3528 3.57112C10.4564 3.6739 10.5082 3.80154 10.5082 3.95404C10.5082 4.10654 10.4564 4.23564 10.3528 4.34133C10.2491 4.44716 10.1204 4.50008 9.96678 4.50008H5.25678C5.19262 4.50008 5.13387 4.52682 5.08053 4.58029C5.02706 4.63362 5.00033 4.69237 5.00033 4.75654V15.2436C5.00033 15.3078 5.02706 15.3665 5.08053 15.4199C5.13387 15.4733 5.19262 15.5001 5.25678 15.5001H9.96678C10.1204 15.5001 10.2491 15.5515 10.3528 15.6542C10.4564 15.7572 10.5082 15.8849 10.5082 16.0374C10.5082 16.1899 10.4564 16.319 10.3528 16.4247C10.2491 16.5305 10.1204 16.5834 9.96678 16.5834H5.25678ZM14.9939 10.5417H9.12137C8.9679 10.5417 8.83935 10.4903 8.73574 10.3874C8.63227 10.2846 8.58053 10.157 8.58053 10.0045C8.58053 9.85196 8.63227 9.72286 8.73574 9.61716C8.83935 9.51133 8.9679 9.45842 9.12137 9.45842H14.9939L13.7872 8.25175C13.6718 8.13633 13.6128 8.0055 13.6101 7.85925C13.6075 7.71286 13.6665 7.58251 13.7872 7.46821C13.9079 7.35376 14.0369 7.29786 14.1743 7.3005C14.3115 7.30328 14.4378 7.3623 14.5532 7.47758L16.611 9.53529C16.7476 9.66696 16.816 9.82064 16.816 9.99633C16.816 10.1719 16.7476 10.3281 16.611 10.4649L14.5532 12.5226C14.4432 12.6326 14.3204 12.6867 14.1847 12.6851C14.049 12.6836 13.9201 12.6251 13.798 12.5097C13.684 12.3942 13.6257 12.2666 13.623 12.1267C13.6203 11.9867 13.6793 11.8564 13.8001 11.7357L14.9939 10.5417Z" fill="currentColor"/>
</g>
</svg>
