<svg width="20" height="20" viewBox="0 0 20 20" fill="none" xmlns="http://www.w3.org/2000/svg">
<mask id="mask0_1778_812" style="mask-type:alpha" maskUnits="userSpaceOnUse" x="0" y="0" width="20" height="20">
<rect width="20" height="20" fill="#D9D9D9"/>
</mask>
<g mask="url(#mask0_1778_812)">
<path d="M6.67012 16.5001H13.3305V14.0001C13.3305 13.0652 13.0092 12.2711 12.3666 11.6178C11.7239 10.9645 10.9352 10.6378 10.0003 10.6378C9.06546 10.6378 8.27671 10.9648 7.63408 11.6188C6.99144 12.2727 6.67012 13.0665 6.67012 14.0001V16.5001ZM10.0003 9.36237C10.9352 9.36237 11.7239 9.03536 12.3666 8.38133C13.0092 7.72744 13.3305 6.93369 13.3305 6.00008V3.50008H6.67012V6.00008C6.67012 6.93494 6.99144 7.72904 7.63408 8.38237C8.27671 9.03571 9.06546 9.36237 10.0003 9.36237ZM4.9647 17.5834C4.81137 17.5834 4.68178 17.5319 4.57595 17.4288C4.46998 17.3258 4.41699 17.1981 4.41699 17.0459C4.41699 16.8936 4.46894 16.7645 4.57283 16.6588C4.67658 16.553 4.80519 16.5001 4.95866 16.5001H5.58699V14.0001C5.58699 13.0898 5.84019 12.2706 6.34658 11.5426C6.85296 10.8144 7.52283 10.3002 8.35616 10.0001C7.53671 9.69453 6.87033 9.17904 6.35699 8.45362C5.84366 7.72821 5.58699 6.91036 5.58699 6.00008V3.50008H4.95866C4.80519 3.50008 4.67658 3.44855 4.57283 3.3455C4.46894 3.24244 4.41699 3.1148 4.41699 2.96258C4.41699 2.81022 4.46887 2.68119 4.57262 2.5755C4.67637 2.46966 4.80491 2.41675 4.95824 2.41675H15.036C15.1893 2.41675 15.3189 2.46828 15.4247 2.57133C15.5307 2.67439 15.5837 2.80203 15.5837 2.95425C15.5837 3.10661 15.5317 3.23564 15.4278 3.34133C15.3241 3.44716 15.1955 3.50008 15.042 3.50008H14.4137V6.00008C14.4137 6.91036 14.157 7.72821 13.6437 8.45362C13.1303 9.17904 12.4639 9.69453 11.6445 10.0001C12.4778 10.3002 13.1477 10.8144 13.6541 11.5426C14.1605 12.2706 14.4137 13.0898 14.4137 14.0001V16.5001H15.042C15.1955 16.5001 15.3241 16.5516 15.4278 16.6547C15.5317 16.7577 15.5837 16.8854 15.5837 17.0376C15.5837 17.1899 15.5318 17.319 15.428 17.4247C15.3243 17.5305 15.1957 17.5834 15.0424 17.5834H4.9647Z" fill="#333333"/>
</g>
</svg>
