<svg width="20" height="20" viewBox="0 0 20 20" fill="none" xmlns="http://www.w3.org/2000/svg">
<mask id="mask0_1778_839" style="mask-type:alpha" maskUnits="userSpaceOnUse" x="0" y="0" width="20" height="20">
<rect width="20" height="20" fill="#D9D9D9"/>
</mask>
<g mask="url(#mask0_1778_839)">
<path d="M8.64824 14.8399C8.27727 14.8399 7.96192 14.7087 7.7022 14.4463C7.44262 14.184 7.31283 13.8686 7.31283 13.5001V11.8157C6.55852 11.335 5.97067 10.7162 5.54928 9.95925C5.12776 9.2023 4.91699 8.38522 4.91699 7.508C4.91699 6.09342 5.40963 4.89126 6.39491 3.90154C7.38005 2.91168 8.57977 2.41675 9.99408 2.41675C11.4085 2.41675 12.6104 2.90994 13.5997 3.89633C14.589 4.88272 15.0837 6.08397 15.0837 7.50008C15.0837 8.38008 14.8729 9.20154 14.4514 9.96446C14.03 10.7275 13.4421 11.3446 12.6878 11.8157V13.5001C12.6878 13.8686 12.5564 14.184 12.2937 14.4463C12.031 14.7087 11.7152 14.8399 11.3462 14.8399H8.64824ZM8.32241 17.5834C8.16894 17.5834 8.04033 17.5319 7.93658 17.4288C7.83269 17.3258 7.78074 17.1981 7.78074 17.0459C7.78074 16.8936 7.83269 16.7645 7.93658 16.6588C8.04033 16.553 8.16894 16.5001 8.32241 16.5001H11.6782C11.8317 16.5001 11.9603 16.5516 12.0641 16.6547C12.168 16.7577 12.2199 16.8854 12.2199 17.0376C12.2199 17.1899 12.168 17.319 12.0641 17.4247C11.9603 17.5305 11.8317 17.5834 11.6782 17.5834H8.32241Z" fill="#FFC107"/>
</g>
</svg>
