<svg width="32" height="32" viewBox="0 0 32 32" fill="none" xmlns="http://www.w3.org/2000/svg">
<mask id="mask0_1775_624" style="mask-type:alpha" maskUnits="userSpaceOnUse" x="0" y="0" width="32" height="32">
<rect width="32" height="32" fill="#D9D9D9"/>
</mask>
<g mask="url(#mask0_1775_624)">
<path d="M15.9995 17.9999C15.0679 17.9999 14.2795 17.6773 13.6342 17.0319C12.9888 16.3866 12.6662 15.5981 12.6662 14.6666V6.66659C12.6662 5.73503 12.9888 4.94658 13.6342 4.30125C14.2795 3.65592 15.0679 3.33325 15.9995 3.33325C16.931 3.33325 17.7195 3.65592 18.3648 4.30125C19.0102 4.94658 19.3328 5.73503 19.3328 6.66659V14.6666C19.3328 15.5981 19.0102 16.3866 18.3648 17.0319C17.7195 17.6773 16.931 17.9999 15.9995 17.9999ZM14.9995 26.6666V23.2716C13.0148 23.0425 11.3139 22.2271 9.89682 20.8256C8.47993 19.4238 7.65005 17.7153 7.40716 15.6999C7.37138 15.4161 7.44571 15.173 7.63016 14.9706C7.81482 14.7679 8.04905 14.6666 8.33282 14.6666C8.6166 14.6666 8.85416 14.7645 9.04549 14.9603C9.23705 15.1558 9.36449 15.3955 9.42782 15.6793C9.67049 17.3119 10.417 18.6624 11.6675 19.7306C12.9179 20.799 14.3619 21.3333 15.9995 21.3333C17.6593 21.3333 19.1088 20.7935 20.3482 19.7139C21.5875 18.6346 22.3285 17.2897 22.5712 15.6793C22.6345 15.3955 22.7619 15.1558 22.9535 14.9603C23.1448 14.7645 23.3824 14.6666 23.6662 14.6666C23.9499 14.6666 24.1842 14.7679 24.3688 14.9706C24.5533 15.173 24.6276 15.4161 24.5918 15.6999C24.3489 17.6708 23.5246 19.3661 22.1188 20.7859C20.7128 22.2055 19.0064 23.034 16.9995 23.2716V26.6666C16.9995 26.9504 16.9037 27.1879 16.7122 27.3793C16.5208 27.5708 16.2833 27.6666 15.9995 27.6666C15.7157 27.6666 15.4782 27.5708 15.2868 27.3793C15.0953 27.1879 14.9995 26.9504 14.9995 26.6666ZM15.9995 15.9999C16.3773 15.9999 16.6939 15.8721 16.9495 15.6166C17.205 15.361 17.3328 15.0444 17.3328 14.6666V6.66659C17.3328 6.28881 17.205 5.97214 16.9495 5.71659C16.6939 5.46103 16.3773 5.33325 15.9995 5.33325C15.6217 5.33325 15.305 5.46103 15.0495 5.71659C14.7939 5.97214 14.6662 6.28881 14.6662 6.66659V14.6666C14.6662 15.0444 14.7939 15.361 15.0495 15.6166C15.305 15.8721 15.6217 15.9999 15.9995 15.9999Z" fill="#F5F7F8"/>
</g>
</svg>
