<svg width="20" height="20" viewBox="0 0 20 20" fill="none" xmlns="http://www.w3.org/2000/svg">
<mask id="mask0_1775_769" style="mask-type:alpha" maskUnits="userSpaceOnUse" x="0" y="0" width="20" height="20">
<rect x="20" y="20" width="20" height="20" transform="rotate(-180 20 20)" fill="#D9D9D9"/>
</mask>
<g mask="url(#mask0_1775_769)">
<path d="M12.471 9.99988L6.44372 3.97259C6.29206 3.82092 6.21484 3.63293 6.21206 3.40863C6.20942 3.18419 6.28393 2.99613 6.4356 2.84446C6.58741 2.6928 6.77546 2.61696 6.99977 2.61696C7.22407 2.61696 7.41213 2.6928 7.56393 2.84446L13.7689 9.05759C13.9057 9.19439 14.0035 9.34238 14.0623 9.50155C14.121 9.66071 14.1504 9.82682 14.1504 9.99988C14.1504 10.1729 14.121 10.339 14.0623 10.4982C14.0035 10.6574 13.9057 10.8054 13.7689 10.9422L7.56393 17.1474C7.41213 17.299 7.22539 17.3762 7.00372 17.3788C6.78206 17.3815 6.59539 17.307 6.44372 17.1553C6.29206 17.0036 6.21622 16.8156 6.21622 16.5911C6.21622 16.3668 6.29206 16.1788 6.44372 16.0272L12.471 9.99988Z" fill="#666666"/>
</g>
</svg>
